<?xml version="1.0" encoding="UTF-8"?>
<svg width="225px" height="126px" viewBox="0 0 225 126" version="1.1" xmlns="http://www.w3.org/2000/svg" xmlns:xlink="http://www.w3.org/1999/xlink">
    <!-- Generator: Sketch 59 (86127) - https://sketch.com -->
    <title>KF_Branding_Final_Jul31_TKF_Logo_ENG_HORZ_WHITE_CMYK</title>
    <desc>Created with Sketch.</desc>
    <defs>
        <polygon id="path-1" points="0 0.0750385036 72.6818928 0.0750385036 72.6818928 119.738401 0 119.738401"></polygon>
    </defs>
    <g id="KRESCENT-pages" stroke="none" stroke-width="1" fill="none" fill-rule="evenodd">
        <g id="K1.0-:-K3B-1440" transform="translate(-217.000000, -3151.000000)">
            <g id="Group-7" transform="translate(217.000000, 3141.000000)">
                <g id="KF_Branding_Final_Jul31_TKF_Logo_ENG_HORZ_WHITE_CMYK" transform="translate(0.000000, 10.000000)">
                    <g id="Group-3">
                        <mask id="mask-2" fill="white">
                            <use xlink:href="#path-1"></use>
                        </mask>
                        <g id="Clip-2"></g>
                        <polyline id="Fill-1" fill="#D62862" mask="url(#mask-2)" points="14.2035558 79.2950995 34.3260394 13.8262121 72.6818928 7.30816172 72.6528446 7.26745455 67.5241247 0.0750385036 30.2691466 10.6181935 0 66.9181605 18.1334245 118.508848 38.4041028 119.721726 38.6847374 119.738401 14.2035558 79.2950995"></polyline>
                    </g>
                    <polyline id="Fill-4" fill="#D62862" points="51.7440919 120.520174 61.5973195 121.109693 65.169256 113.434186 51.771663 120.505461 51.7440919 120.520174"></polyline>
                    <polyline id="Fill-5" fill="#BA225E" points="42.2054705 125.55462 38.6847374 119.738401 51.5013676 120.505461 51.7440919 120.520174 42.2054705 125.55462"></polyline>
                    <polyline id="Fill-6" fill="#B9225E" points="101.966357 37.5805578 89.3801422 4.47043111 72.92314 7.26745455 72.6818928 7.30816172 89.3269694 30.6495504 64.984628 62.7008004 80.4367615 80.6242129 65.2568928 113.245363 65.169256 113.434186 65.5271882 113.245363 87.8839168 101.445681 77.9637309 68.9549899 101.966357 37.5805578"></polyline>
                    <polygon id="Fill-7" fill="#751D3E" points="64.984628 62.7008004 89.3269694 30.6495504 72.6818928 7.30816172 34.3260394 13.8262121 14.2035558 79.2950995 38.6847374 119.738401 51.5013676 120.505461 51.7440919 120.520174 51.771663 120.505461 65.169256 113.434186 65.2568928 113.245363 80.4367615 80.6242129"></polygon>
                    <polyline id="Fill-8" fill="#231F20" points="104.683096 88.7823205 104.683096 90.3904987 107.79174 90.3904987 107.79174 92.2242827 104.683096 92.2242827 104.683096 95.2856575 102.769858 95.2856575 102.769858 86.948046 107.851313 86.948046 107.851313 88.7823205 104.683096 88.7823205"></polyline>
                    <path d="M115.738129,91.1168518 C115.738129,89.6278524 114.661871,88.6396002 113.29907,88.6396002 C111.935777,88.6396002 110.859026,89.6278524 110.859026,91.1168518 C110.859026,92.6058511 111.935777,93.5941033 113.29907,93.5941033 C114.661871,93.5941033 115.738129,92.6058511 115.738129,91.1168518 Z M108.94628,91.1168518 C108.94628,88.6636322 110.89546,86.7812938 113.29907,86.7812938 C115.701696,86.7812938 117.650875,88.6636322 117.650875,91.1168518 C117.650875,93.5700713 115.701696,95.4524097 113.29907,95.4524097 C110.89546,95.4524097 108.94628,93.5700713 108.94628,91.1168518 L108.94628,91.1168518 Z" id="Fill-9" fill="#231F20"></path>
                    <path d="M119.097867,92.5935899 L119.097867,86.948046 L121.011105,86.948046 L121.011105,92.4268377 C121.011105,93.0580439 121.309464,93.5941033 122.326149,93.5941033 C123.342341,93.5941033 123.641193,93.0580439 123.641193,92.4268377 L123.641193,86.948046 L125.554431,86.948046 L125.554431,92.5935899 C125.554431,94.3807814 124.167505,95.4524097 122.326149,95.4524097 C120.4843,95.4524097 119.097867,94.3807814 119.097867,92.5935899" id="Fill-10" fill="#231F20"></path>
                    <polyline id="Fill-11" fill="#231F20" points="134.03058 86.948046 134.03058 95.2856575 132.595897 95.2856575 129.367123 90.7598058 129.367123 95.2856575 127.454376 95.2856575 127.454376 86.948046 128.889059 86.948046 132.117341 91.4743882 132.117341 86.948046 134.03058 86.948046"></polyline>
                    <path d="M141.546663,91.1168518 C141.546663,89.6871966 140.637801,88.7823205 139.322757,88.7823205 L137.887582,88.7823205 L137.887582,93.451383 L139.322757,93.451383 C140.637801,93.451383 141.546663,92.5465069 141.546663,91.1168518 Z M143.38802,91.1168518 C143.38802,93.4754149 141.629869,95.2856575 139.322757,95.2856575 L135.974836,95.2856575 L135.974836,86.948046 L139.322757,86.948046 C141.629869,86.948046 143.38802,88.758779 143.38802,91.1168518 L143.38802,91.1168518 Z" id="Fill-12" fill="#231F20"></path>
                    <path d="M148.856947,92.1889705 L147.876696,89.1280862 L146.895952,92.1889705 L148.856947,92.1889705 Z M149.430525,93.9756716 L146.322374,93.9756716 L145.903392,95.2856575 L143.810941,95.2856575 L146.656674,86.948046 L149.096225,86.948046 L151.941958,95.2856575 L149.849508,95.2856575 L149.430525,93.9756716 L149.430525,93.9756716 Z" id="Fill-13" fill="#231F20"></path>
                    <polyline id="Fill-14" fill="#231F20" points="157.898304 88.7823205 155.74628 88.7823205 155.74628 95.2856575 153.833534 95.2856575 153.833534 88.7823205 151.68151 88.7823205 151.68151 86.948046 157.898304 86.948046 157.898304 88.7823205"></polyline>
                    <polygon id="Fill-15" fill="#231F20" points="159.021335 95.2856575 160.934081 95.2856575 160.934081 86.948046 159.021335 86.948046"></polygon>
                    <path d="M169.222648,91.1168518 C169.222648,89.6278524 168.146882,88.6396002 166.783589,88.6396002 C165.420788,88.6396002 164.34453,89.6278524 164.34453,91.1168518 C164.34453,92.6058511 165.420788,93.5941033 166.783589,93.5941033 C168.146882,93.5941033 169.222648,92.6058511 169.222648,91.1168518 Z M162.431291,91.1168518 C162.431291,88.6636322 164.38047,86.7812938 166.783589,86.7812938 C169.187199,86.7812938 171.135886,88.6636322 171.135886,91.1168518 C171.135886,93.5700713 169.187199,95.4524097 166.783589,95.4524097 C164.38047,95.4524097 162.431291,93.5700713 162.431291,91.1168518 L162.431291,91.1168518 Z" id="Fill-16" fill="#231F20"></path>
                    <polyline id="Fill-17" fill="#231F20" points="179.213731 86.948046 179.213731 95.2856575 177.779048 95.2856575 174.551258 90.7598058 174.551258 95.2856575 172.63802 95.2856575 172.63802 86.948046 174.072702 86.948046 177.300985 91.4743882 177.300985 86.948046 179.213731 86.948046"></polyline>
                    <polyline id="Fill-18" fill="#231F20" points="121.778665 64.5061385 114.744584 64.5061385 108.715372 73.2748536 108.715372 56.4985983 102.686652 56.4985983 102.686652 84.5257246 108.715372 84.5257246 108.715372 75.6770666 115.146335 84.5257246 121.97954 84.5257246 114.463457 74.5161768 121.778665 64.5061385"></polyline>
                    <path d="M127.204267,55.5373207 C125.234902,55.5373207 123.586543,57.1788493 123.586543,59.1406403 C123.586543,61.1029216 125.234902,62.7444502 127.204267,62.7444502 C129.173632,62.7444502 130.821499,61.1029216 130.821499,59.1406403 C130.821499,57.1788493 129.173632,55.5373207 127.204267,55.5373207" id="Fill-19" fill="#231F20"></path>
                    <polygon id="Fill-20" fill="#231F20" points="124.189661 84.5257246 130.218873 84.5257246 130.218873 64.5061385 124.189661 64.5061385"></polygon>
                    <path d="M188.378665,72.4342261 C188.940919,70.3920018 190.468654,69.2713287 192.760011,69.2713287 C194.568381,69.2713287 196.377243,70.1114657 197.020241,72.4342261 L188.378665,72.4342261 Z M192.799891,63.9455567 C186.449179,63.9455567 182.108206,68.5498801 182.108206,74.5161768 C182.108206,80.481983 186.368928,85.0867968 193.242505,85.0867968 C197.06012,85.0867968 200.034847,83.6850972 202.004212,80.9621314 L197.181236,78.1999297 C196.377243,79.0802834 194.970131,79.7208082 193.322757,79.7208082 C191.111652,79.7208082 189.26291,79.0003404 188.499289,76.9183898 L202.767834,76.9183898 C202.928829,76.1577054 203.009081,75.3568042 203.009081,74.5161768 C203.009081,68.4704275 198.668107,63.9455567 192.799891,63.9455567 L192.799891,63.9455567 Z" id="Fill-21" fill="#231F20"></path>
                    <path d="M218.282987,64.5061385 L214.504759,76.7580134 L210.043162,64.5061385 L203.411324,64.5061385 L211.409902,83.6046638 C210.525656,86.047584 209.199289,86.9279376 206.385558,86.9279376 L206.385558,92.5337553 C212.01302,92.8138009 215.58988,90.2914282 217.840864,83.9249261 L224.71395,64.5061385 L218.282987,64.5061385" id="Fill-22" fill="#231F20"></path>
                    <path d="M144.447538,79.4010362 C141.673687,79.4010362 139.66395,77.5186978 139.66395,74.5161768 C139.66395,71.5131653 141.673687,69.6313173 144.447538,69.6313173 C147.220897,69.6313173 149.230635,71.5131653 149.230635,74.5161768 C149.230635,77.5186978 147.220897,79.4010362 144.447538,79.4010362 Z M149.230635,66.3884769 C147.904267,64.8661271 145.934902,63.9455567 143.241302,63.9455567 C137.976204,63.9455567 133.63523,68.5498801 133.63523,74.5161768 C133.63523,80.481983 137.976204,85.0867968 143.241302,85.0867968 C145.934902,85.0867968 147.904267,84.165736 149.230635,82.6438767 L149.230635,84.5257246 L155.259354,84.5257246 L155.259354,56.4985983 L149.230635,56.4985983 L149.230635,66.3884769 L149.230635,66.3884769 Z" id="Fill-23" fill="#231F20"></path>
                    <path d="M171.457385,63.9455567 C168.80465,63.9455567 166.794912,64.9063438 165.7093,66.3884769 L165.7093,64.5061385 L159.68058,64.5061385 L159.68058,84.5257246 L165.7093,84.5257246 L165.7093,73.5951159 C165.7093,70.7524809 167.236543,69.4709409 169.447155,69.4709409 C171.376641,69.4709409 172.944256,70.6323212 172.944256,73.1144772 L172.944256,84.5257246 L178.973468,84.5257246 L178.973468,72.233633 C178.973468,66.8284085 175.51674,63.9455567 171.457385,63.9455567" id="Fill-24" fill="#231F20"></path>
                    <polyline id="Fill-25" fill="#231F20" points="218.938293 92.6686284 218.938293 92.315506 221.468928 92.315506 221.468928 92.6686284 220.41384 92.6686284 220.41384 95.4671232 219.993381 95.4671232 219.993381 92.6686284 218.938293 92.6686284"></polyline>
                    <polyline id="Fill-26" fill="#231F20" points="222.403392 92.315506 223.400383 94.9634333 224.402298 92.315506 224.978337 92.315506 224.978337 95.4671232 224.579048 95.4671232 224.579048 92.8451896 224.570186 92.8451896 223.582549 95.4671232 223.22314 95.4671232 222.235011 92.8451896 222.226641 92.8451896 222.226641 95.4671232 221.827352 95.4671232 221.827352 92.315506 222.403392 92.315506"></polyline>
                </g>
            </g>
        </g>
    </g>
</svg>